# xmcd
#
# Track frame offsets: 
#        150
#        7907
#        18555
#        32538
#        47742
#        60487
#        73616
#        87636
#        102998
#        118208
#        140549
#        155954
#        169093
#        181872
#        196320
#        208279
#        221792
#        235523
#        250023
#        264604
#
# Disc length: 3716 seconds
#
# Revision: 0
# Processed by: cddbd v1.5.2PL0 Copyright (c) Steve Scherf et al.
# Submitted via: ExactAudioCopy v0.99pb5
#
DISCID=220e8214
DTITLE=Various Artist - The Kings Of The Delta Blues CD2
DYEAR=2018
DGENRE=Blues
TTITLE0=Big Joe Williams - Baby Please Don't Go (1935)
TTITLE1=Robert Johnson - Love In Vain (1939)
TTITLE2=Hambone Willie Newbern - Roll And Tumble Blues (1929)
TTITLE3=Tommy Johnson - Big Road Blues (1928)
TTITLE4=Skip James - Hard Time Killin' Floor Blues (1931)
TTITLE5=Robert Petway - Catfish Blues (1941)
TTITLE6=Muddy Waters - I Be's Troubled (1941)
TTITLE7=Mississippi John Hurt - Frankie (1928)
TTITLE8=Arthur 'Big Boy' Crudup - Black Pony Blues (1942)
TTITLE9=Son House - Low Down Dirty Dog Blues (1942)
TTITLE10=Ishman Bracey - Trouble Hearted Blues (1928)
TTITLE11=Garfield Akers - Cottonfield Blues (Part 1) (1930)
TTITLE12=Willie 'Poor Boy' Lofton - Dirty Mistreater (1935)
TTITLE13=Kansas Joe McCoy - When The Levee Breaks (1929)
TTITLE14=Bukka White - Bukka's Jitterbug Swing (1940)
TTITLE15=Kid Bailey - Rowdy Blues (1929)
TTITLE16=Geeshie Wiley - Last Kind Words (1930)
TTITLE17=Papa Charlie McCoy /Mptherless And Fatherless Blues (1936)
TTITLE18=Arthur Petties - Two Times Blues (1928)
TTITLE19=Freddie Spruell - Mr. Freddie's Kokomo Blues (1935)
EXTD=
EXTT0=
EXTT1=
EXTT2=
EXTT3=
EXTT4=
EXTT5=
EXTT6=
EXTT7=
EXTT8=
EXTT9=
EXTT10=
EXTT11=
EXTT12=
EXTT13=
EXTT14=
EXTT15=
EXTT16=
EXTT17=
EXTT18=
EXTT19=
PLAYORDER=
